<?xml version="1.0" encoding="UTF-8"?>
<svg width="29px" height="25px" viewBox="0 0 29 25" version="1.1" xmlns="http://www.w3.org/2000/svg" xmlns:xlink="http://www.w3.org/1999/xlink">
    <!-- Generator: Sketch 59 (86127) - https://sketch.com -->
    <title>Arrow - Left</title>
    <desc>Created with Sketch.</desc>
    <g id="Browser" stroke="none" stroke-width="1" fill="none" fill-rule="evenodd">
        <g id="Browser-Screen-03" transform="translate(-22.000000, -751.000000)" fill="#7D7D7D" fill-rule="nonzero">
            <g id="Arrow---Left" transform="translate(36.500000, 763.500000) scale(-1, 1) translate(-36.500000, -763.500000) translate(22.000000, 751.000000)">
                <path d="M0,12.5882353 C0,12.934598 0.139512094,13.2401914 0.418552611,13.5050612 L10.8625705,24.2011407 C11.1415702,24.4659938 11.4206107,24.5882353 11.7395317,24.5882353 C12.4171724,24.5882353 12.9553336,24.0585249 12.9553336,23.3658286 C12.9553336,23.0398318 12.8357331,22.7138767 12.6164928,22.4897721 L8.51064595,18.2520639 L3.58763812,13.6069117 L7.29484405,13.8310163 L27.8041587,13.8310163 C28.5017192,13.8310163 29,13.3013184 29,12.5882353 C29,11.8547988 28.5017192,11.3454627 27.8041587,11.3454627 L7.29484405,11.3454627 L3.58763812,11.5492055 L8.51064595,6.92441508 L12.6164928,2.66634504 C12.8357331,2.44224049 12.9553336,2.11628539 12.9553336,1.79028858 C12.9553336,1.09761314 12.4171724,0.588235294 11.7395317,0.588235294 C11.4206107,0.588235294 11.1216504,0.710489316 10.8027703,1.01608265 L0.418552611,11.651056 C0.139512094,11.9159258 0,12.2418809 0,12.5882353 Z" id="Path" transform="translate(14.500000, 12.588235) scale(-1, 1) translate(-14.500000, -12.588235) "></path>
            </g>
        </g>
    </g>
</svg>