<?xml version="1.0" encoding="UTF-8"?>
<svg width="321px" height="415px" viewBox="0 0 321 415" version="1.1" xmlns="http://www.w3.org/2000/svg" xmlns:xlink="http://www.w3.org/1999/xlink">
    <!-- Generator: Sketch 60.1 (88133) - https://sketch.com -->
    <title>Group</title>
    <desc>Created with Sketch.</desc>
    <g id="Page-1" stroke="none" stroke-width="1" fill="none">
        <g id="Group" fill="#7D7D7D" fill-rule="nonzero">
            <path d="M161.5,263 C170.561097,263 178.357855,256.415594 178.357855,248.514306 L178.357855,67.1609442 L176.882793,40.6351931 L189.947631,53.4277539 L219.448878,81.4585122 C222.399002,84.2804006 226.613466,85.7854077 230.82793,85.7854077 C239.256858,85.7854077 246,80.3297568 246,72.804721 C246,68.8540773 244.314214,65.8440629 241.153367,63.0221745 L173.932668,5.07939914 C169.718204,1.31688126 165.925187,0 161.5,0 C157.074813,0 153.281796,1.31688126 149.067332,5.07939914 L81.8466334,63.0221745 C78.6857855,65.8440629 77,68.8540773 77,72.804721 C77,80.3297568 83.3216958,85.7854077 91.9613466,85.7854077 C96.1758105,85.7854077 100.600998,84.2804006 103.551122,81.4585122 L132.841646,53.4277539 L146.117207,40.6351931 L144.642145,67.1609442 L144.642145,248.514306 C144.642145,256.415594 152.438903,263 161.5,263 Z" id="Path"></path>
            <path d="M263.827811,415 C301.815976,415 321,396.19082 321,359.317377 L321,186.496393 C321,149.80918 301.815976,131 263.827811,131 L214.253254,131 L214.253254,161.541639 L262.688166,161.541639 C279.972781,161.541639 289.849704,170.666885 289.849704,188.544918 L289.849704,357.268852 C289.849704,375.146885 279.972781,384.272131 262.688166,384.272131 L58.5017751,384.272131 C41.0272189,384.272131 31.3402367,375.146885 31.3402367,357.268852 L31.3402367,188.544918 C31.3402367,170.666885 41.0272189,161.541639 58.5017751,161.541639 L107.126627,161.541639 L107.126627,131 L57.3621302,131 C19.5639053,131 0,149.622951 0,186.496393 L0,359.317377 C0,396.19082 19.5639053,415 57.3621302,415 L263.827811,415 Z" id="Path"></path>
        </g>
    </g>
</svg>