<?xml version="1.0" encoding="UTF-8"?>
<svg width="25px" viewBox="0 0 12 13" version="1.1" xmlns="http://www.w3.org/2000/svg" xmlns:xlink="http://www.w3.org/1999/xlink">
    <!-- Generator: Sketch 39.1 (31720) - http://www.bohemiancoding.com/sketch -->
    <title>􀣗</title>
    <desc>Created with Sketch.</desc>
    <defs></defs>
    <g id="Page-1" stroke="none" stroke-width="1" fill="#7D7D7D" fill-rule="evenodd">
        <path d="M2.41210938,6.58984375 C2.49414104,6.57812494 2.57617146,6.56835941 2.65820312,6.56054688 C2.74023479,6.55273434 2.82226521,6.54882812 2.90429688,6.54882812 C2.98632854,6.54882812 3.06933552,6.55273434 3.15332031,6.56054688 C3.23730511,6.56835941 3.3242183,6.57812494 3.4140625,6.58984375 L3.4140625,1.85546875 C3.4140625,1.58984242 3.48339774,1.3857429 3.62207031,1.24316406 C3.76074288,1.10058522 3.96874861,1.02929688 4.24609375,1.02929688 L6.65429688,1.02929688 L6.65429688,4.14648438 C6.65429688,4.52148625 6.74706938,4.80078033 6.93261719,4.984375 C7.11816499,5.16796967 7.39648252,5.25976562 7.76757812,5.25976562 L10.8378906,5.25976562 L10.8378906,10.1464844 C10.8378906,10.416017 10.7675788,10.6220696 10.6269531,10.7646484 C10.4863274,10.9072273 10.2773451,10.9785156 10,10.9785156 L6.40820312,10.9785156 C6.3730467,11.1542978 6.32226596,11.326171 6.25585938,11.4941406 C6.18945279,11.6621102 6.11132857,11.8203118 6.02148438,11.96875 L10.0703125,11.96875 C10.6562529,11.96875 11.0966782,11.820314 11.3916016,11.5234375 C11.6865249,11.226561 11.8339844,10.7832061 11.8339844,10.1933594 L11.8339844,5.16015625 C11.8339844,4.91406127 11.8203126,4.70507898 11.7929688,4.53320312 C11.7656249,4.36132727 11.7119145,4.20507883 11.6318359,4.06445312 C11.5517574,3.92382742 11.4335945,3.7734383 11.2773438,3.61328125 L8.30078125,0.583984375 C8.07812389,0.357420742 7.85937607,0.208008174 7.64453125,0.135742188 C7.42968643,0.0634762012 7.15625166,0.02734375 6.82421875,0.02734375 L4.17578125,0.02734375 C3.59374709,0.02734375 3.15429836,0.176756318 2.85742188,0.475585938 C2.56054539,0.774415557 2.41210938,1.21874705 2.41210938,1.80859375 L2.41210938,6.58984375 Z M7.55078125,4.04101562 L7.55078125,1.1875 L10.6796875,4.35742188 L7.87304688,4.35742188 C7.75976506,4.35742188 7.67773463,4.3320315 7.62695312,4.28125 C7.57617162,4.2304685 7.55078125,4.15039117 7.55078125,4.04101562 L7.55078125,4.04101562 Z M2.91015625,13 C3.29297066,13 3.65527173,12.925782 3.99707031,12.7773438 C4.3388689,12.6289055 4.64062369,12.4238294 4.90234375,12.1621094 C5.16406381,11.9003893 5.37011644,11.5986345 5.52050781,11.2568359 C5.67089919,10.9150374 5.74609375,10.5507832 5.74609375,10.1640625 C5.74609375,9.64452865 5.61816534,9.16992402 5.36230469,8.74023438 C5.10644403,8.31054473 4.76269747,7.96777472 4.33105469,7.71191406 C3.8994119,7.45605341 3.42578383,7.328125 2.91015625,7.328125 C2.3906224,7.328125 1.91699433,7.45605341 1.48925781,7.71191406 C1.0615213,7.96777472 0.718751289,8.31054473 0.4609375,8.74023438 C0.203123711,9.16992402 0.07421875,9.64452865 0.07421875,10.1640625 C0.07421875,10.5507832 0.148436758,10.9160139 0.296875,11.2597656 C0.445313242,11.6035173 0.649412764,11.9062487 0.909179688,12.1679688 C1.16894661,12.4296888 1.47070141,12.6337883 1.81445312,12.7802734 C2.15820484,12.9267585 2.52343557,13 2.91015625,13 L2.91015625,13 Z M2.91601562,11.9511719 C2.80664008,11.9511719 2.71875033,11.9179691 2.65234375,11.8515625 C2.58593717,11.7851559 2.55273438,11.6992193 2.55273438,11.59375 L2.55273438,10.5214844 L1.48632812,10.5214844 C1.38085885,10.5214844 1.29492221,10.4892581 1.22851562,10.4248047 C1.16210904,10.3603512 1.12890625,10.273438 1.12890625,10.1640625 C1.12890625,10.054687 1.16210904,9.96777376 1.22851562,9.90332031 C1.29492221,9.83886687 1.38085885,9.80664062 1.48632812,9.80664062 L2.55273438,9.80664062 L2.55273438,8.74023438 C2.55273438,8.63085883 2.58593717,8.54296908 2.65234375,8.4765625 C2.71875033,8.41015592 2.80664008,8.37695312 2.91601562,8.37695312 C3.02539117,8.37695312 3.11230437,8.41015592 3.17675781,8.4765625 C3.24121126,8.54296908 3.2734375,8.63085883 3.2734375,8.74023438 L3.2734375,9.80664062 L4.34570312,9.80664062 C4.4511724,9.80664062 4.53710904,9.83886687 4.60351562,9.90332031 C4.66992221,9.96777376 4.703125,10.054687 4.703125,10.1640625 C4.703125,10.273438 4.66992221,10.3603512 4.60351562,10.4248047 C4.53710904,10.4892581 4.4511724,10.5214844 4.34570312,10.5214844 L3.2734375,10.5214844 L3.2734375,11.59375 C3.2734375,11.6992193 3.24121126,11.7851559 3.17675781,11.8515625 C3.11230437,11.9179691 3.02539117,11.9511719 2.91601562,11.9511719 L2.91601562,11.9511719 Z"></path>
    </g>
</svg>