<?xml version="1.0" encoding="UTF-8"?>
<svg width="162px" height="162px" viewBox="0 0 162 162" version="1.1" xmlns="http://www.w3.org/2000/svg" xmlns:xlink="http://www.w3.org/1999/xlink">
    <g id="Page-1" stroke="none" stroke-width="1" fill="none" fill-rule="evenodd">
        <path d="M80.9958031,161.908277 C92.0508411,161.908277 102.466864,159.783409 112.244184,155.533607 C122.021504,151.283806 130.632083,145.436946 138.076179,137.99285 C145.520275,130.548754 151.353247,121.952063 155.575272,112.202519 C159.797297,102.452976 161.908277,92.023065 161.908277,80.9124741 C161.908277,69.8574361 159.783409,59.4414133 155.533607,49.6640933 C151.283806,39.8867732 145.436946,31.2623064 137.99285,23.7904339 C130.548754,16.3185615 121.938175,10.4855888 112.160855,6.29134067 C102.383535,2.09709259 91.9675121,0 80.9124741,0 C69.8574361,0 59.4553013,2.09709259 49.7057578,6.29134067 C39.9562142,10.4855888 31.3456354,16.3185615 23.8737629,23.7904339 C16.4018905,31.2623064 10.5550297,39.8867732 6.33300518,49.6640933 C2.11098062,59.4414133 0,69.8574361 0,80.9124741 C0,92.023065 2.12486865,102.452976 6.37466969,112.202519 C10.6244707,121.952063 16.4713315,130.548754 23.9154275,137.99285 C31.3595234,145.436946 39.9562142,151.283806 49.7057578,155.533607 C59.4553013,159.783409 69.8852121,161.908277 80.9958031,161.908277 L80.9958031,161.908277 Z M53.747215,115.244028 C51.8028616,115.244028 50.150186,114.563515 48.7891386,113.202468 C47.4280912,111.84142 46.7475777,110.160969 46.7475777,108.161062 C46.7475777,106.272262 47.4419792,104.66125 48.8308031,103.327979 L71.0796502,80.9958031 L48.8308031,58.7469559 C47.4419792,57.3581321 46.7475777,55.7193445 46.7475777,53.830544 C46.7475777,51.8306377 47.4280912,50.177962 48.7891386,48.8724676 C50.150186,47.5669732 51.8028616,46.9142357 53.747215,46.9142357 C55.7471214,46.9142357 57.385909,47.5530851 58.6636269,48.8308031 L81.0791321,71.2463083 L103.577966,48.8308031 C104.911237,47.4419792 106.522249,46.7475777 108.411049,46.7475777 C110.410956,46.7475777 112.077519,47.4142032 113.41079,48.7474741 C114.744061,50.080745 115.410687,51.7195326 115.410687,53.663886 C115.410687,55.5526865 114.716285,57.2192501 113.327461,58.6636269 L90.995285,80.9958031 L113.244132,103.24465 C114.632956,104.689027 115.327357,106.327815 115.327357,108.161062 C115.327357,110.160969 114.660732,111.84142 113.327461,113.202468 C111.99419,114.563515 110.327627,115.244028 108.32772,115.244028 C106.383367,115.244028 104.689027,114.577403 103.24465,113.244132 L81.0791321,90.995285 L58.830285,113.244132 C57.497014,114.577403 55.8026743,115.244028 53.747215,115.244028 L53.747215,115.244028 Z" id="ô€¡" fill="#000000"></path>
    </g>
</svg>