<?xml version="1.0" encoding="UTF-8"?>
<svg width="28px" height="25px" viewBox="0 0 28 25" version="1.1" xmlns="http://www.w3.org/2000/svg" xmlns:xlink="http://www.w3.org/1999/xlink">
    <!-- Generator: Sketch 59 (86127) - https://sketch.com -->
    <title>Regular-S</title>
    <desc>Created with Sketch.</desc>
    <g id="Browser" stroke="none" stroke-width="1" fill="none">
        <g id="Browser-Screen-03" transform="translate(-252.000000, -751.000000)" fill="#7D7D7D" fill-rule="nonzero">
            <g id="Regular-S" transform="translate(252.000000, 751.588235)">
                <path d="M14.0002266,0 C10.7757829,0 7.83625007,1.34437419 5.69161723,3.54423079 C5.15171181,4.10949432 5.18172021,4.82750134 5.67662839,5.27052627 C6.14155889,5.68301503 6.81642531,5.606612 7.29634465,5.1177515 C9.00605539,3.36091984 11.3756744,2.3068271 14.0002266,2.3068271 C18.9193922,2.3068271 22.9237163,6.03436885 23.4486329,10.9077057 L22.0238944,10.9077057 C21.2140056,10.9077057 20.8390696,11.7632194 21.3489973,12.4353909 L23.5386274,15.3227183 C24.1835161,16.1476646 24.9333882,16.1476646 25.5782769,15.3227183 L27.767907,12.4353909 C28.2778347,11.7632194 27.9028987,10.9077057 27.078021,10.9077057 L25.7282575,10.9077057 C25.2033409,4.82750134 20.0891975,0 14.0002266,0 Z M0.907428,13.0922943 L2.25720691,13.0922943 C2.79711233,19.1572306 7.91125571,24 14.0002266,24 C17.2096815,24 20.1642031,22.6403577 22.2938472,20.4404855 C22.8487414,19.8905057 22.818733,19.1572306 22.3238248,18.7294737 C21.8439055,18.3017169 21.1690084,18.393388 20.7041086,18.8669804 C18.9943978,20.6238058 16.6247788,21.6779111 14.0002266,21.6779111 C9.06607218,21.6779111 5.07673689,17.9503631 4.55182031,13.0922943 L5.96156994,13.0922943 C6.78644763,13.0922943 7.16138365,12.2215125 6.65145592,11.549341 L4.46182583,8.66201358 C3.8169371,7.83703607 3.06706504,7.83703607 2.42217631,8.66201358 L0.232543152,11.549341 C-0.277372301,12.2215125 0.0975637256,13.0922943 0.907428,13.0922943 Z" id="Shape"></path>
            </g>
        </g>
    </g>
</svg>