<?xml version="1.0" encoding="UTF-8"?>
<svg width="26px" height="23px" viewBox="0 0 26 23" version="1.1" xmlns="http://www.w3.org/2000/svg" xmlns:xlink="http://www.w3.org/1999/xlink">
    <!-- Generator: Sketch 59 (86127) - https://sketch.com -->
    <title>Arrow - Right</title>
    <desc>Created with Sketch.</desc>
    <g id="Browser" stroke="none" stroke-width="1" fill="none">
        <g id="Browser-Screen-03" transform="translate(-101.000000, -752.000000)" fill="#7D7D7D" fill-rule="nonzero">
            <g id="Arrow---Right" transform="translate(101.000000, 752.588235)">
                <path d="M0,11 C0,11.3174992 0.125079809,11.5976264 0.375254065,11.8404237 L9.73885634,21.6451633 C9.988994,21.8879453 10.2391683,22 10.5250974,22 C11.1326373,22 11.6151267,21.5144321 11.6151267,20.8794605 C11.6151267,20.5806301 11.5078987,20.2818379 11.3113384,20.0764088 L7.6302343,16.1918428 L3.21650315,11.9337867 L6.54020501,12.1392159 L24.9278664,12.1392159 C25.5532655,12.1392159 26,11.6536595 26,11 C26,10.3276832 25.5532655,9.86079175 24.9278664,9.86079175 L6.54020501,9.86079175 L3.21650315,10.047556 L7.6302343,5.8081648 L11.3113384,1.90493394 C11.5078987,1.69950476 11.6151267,1.40071259 11.6151267,1.10188218 C11.6151267,0.466929696 11.1326373,0 10.5250974,0 C10.2391683,0 9.97113487,0.112066187 9.68524234,0.392193406 L0.375254065,10.140919 C0.125079809,10.3837163 0,10.6825085 0,11 Z" id="Path" transform="translate(13.000000, 11.000000) scale(-1, 1) translate(-13.000000, -11.000000) "></path>
            </g>
        </g>
    </g>
</svg>