<?xml version="1.0" encoding="UTF-8"?>
<svg width="12px" height="12px" viewBox="0 0 12 12" version="1.1" xmlns="http://www.w3.org/2000/svg" xmlns:xlink="http://www.w3.org/1999/xlink">
    <!-- Generator: Sketch 39.1 (31720) - http://www.bohemiancoding.com/sketch -->
    <title>􀁍</title>
    <desc>Created with Sketch.</desc>
    <defs></defs>
    <g id="Page-1" stroke="none" stroke-width="1" fill="none">
        <path d="M5.68554688,11.6933594 C6.46289451,11.6933594 7.19530906,11.5439468 7.8828125,11.2451172 C8.57031594,10.9462876 9.17577863,10.5351589 9.69921875,10.0117188 C10.2226589,9.48827863 10.632811,8.88379249 10.9296875,8.19824219 C11.226564,7.51269188 11.375,6.77930078 11.375,5.99804688 C11.375,5.22069924 11.2255874,4.48828469 10.9267578,3.80078125 C10.6279282,3.11327781 10.2167995,2.50683856 9.69335938,1.98144531 C9.16991926,1.45605206 8.56445656,1.04589991 7.87695312,0.750976562 C7.18944969,0.456053213 6.45703514,0.30859375 5.6796875,0.30859375 C4.90233986,0.30859375 4.17090187,0.456053213 3.48535156,0.750976562 C2.79980126,1.04589991 2.19433856,1.45605206 1.66894531,1.98144531 C1.14355206,2.50683856 0.732423359,3.11327781 0.435546875,3.80078125 C0.138670391,4.48828469 -0.009765625,5.22069924 -0.009765625,5.99804688 C-0.009765625,6.77930078 0.139646943,7.51269188 0.438476562,8.19824219 C0.737306182,8.88379249 1.14843488,9.48827863 1.671875,10.0117188 C2.19531512,10.5351589 2.79980126,10.9462876 3.48535156,11.2451172 C4.17090187,11.5439468 4.90429297,11.6933594 5.68554688,11.6933594 L5.68554688,11.6933594 Z M3.16015625,6.00390625 C3.16015625,5.85156174 3.20898389,5.72656299 3.30664062,5.62890625 C3.40429736,5.53124951 3.52929611,5.48242188 3.68164062,5.48242188 L5.16992188,5.48242188 L5.16992188,3.99414062 C5.16992188,3.84179611 5.21777296,3.71679736 5.31347656,3.61914062 C5.40918017,3.52148389 5.53124926,3.47265625 5.6796875,3.47265625 C5.83203201,3.47265625 5.95703076,3.52050733 6.0546875,3.61621094 C6.15234424,3.71191454 6.20117188,3.83788984 6.20117188,3.99414062 L6.20117188,5.48242188 L7.6953125,5.48242188 C7.84765701,5.48242188 7.97167921,5.53124951 8.06738281,5.62890625 C8.16308642,5.72656299 8.2109375,5.85156174 8.2109375,6.00390625 C8.2109375,6.15234449 8.16210986,6.27441358 8.06445312,6.37011719 C7.96679639,6.46582079 7.84375074,6.51367188 7.6953125,6.51367188 L6.20117188,6.51367188 L6.20117188,8.0078125 C6.20117188,8.15625074 6.15234424,8.27929639 6.0546875,8.37695312 C5.95703076,8.47460986 5.83203201,8.5234375 5.6796875,8.5234375 C5.53124926,8.5234375 5.40918017,8.47460986 5.31347656,8.37695312 C5.21777296,8.27929639 5.16992188,8.15625074 5.16992188,8.0078125 L5.16992188,6.51367188 L3.68164062,6.51367188 C3.52929611,6.51367188 3.40429736,6.46582079 3.30664062,6.37011719 C3.20898389,6.27441358 3.16015625,6.15234449 3.16015625,6.00390625 L3.16015625,6.00390625 Z" id="􀁍" fill="#7D7D7D"></path>
    </g>
</svg>