<?xml version="1.0" encoding="UTF-8"?>
<svg width="25px" height="24px" viewBox="0 0 25 24" version="1.1" xmlns="http://www.w3.org/2000/svg" xmlns:xlink="http://www.w3.org/1999/xlink">
    <!-- Generator: Sketch 59 (86127) - https://sketch.com -->
    <title>Icon - Tabs</title>
    <desc>Created with Sketch.</desc>
    <g id="Browser" stroke="none" stroke-width="1" fill="none" fill-rule="evenodd">
        <g id="Browser-Screen-03" transform="translate(-177.000000, -752.000000)" fill="#7D7D7D" fill-rule="nonzero">
            <g id="Icon---Tabs" transform="translate(177.000000, 752.588235)">
                <path d="M3.49588258,17.9256706 L5.66980661,17.9256706 L5.66980661,19.7595921 C5.66980661,21.910672 6.84487954,23 9.16569521,23 L21.5041114,23 C23.824897,23 25,21.910672 25,19.7595921 L25,8.24579832 C25,6.09471558 23.824897,4.99161216 21.5041114,4.99161216 L19.3301874,4.99161216 L19.3301874,3.24040513 C19.3301874,1.08932239 18.1551144,0 15.8342988,0 L3.49588258,0 C1.175097,0 0,1.08932239 0,3.24040513 L0,14.6714562 C0,16.83632 1.175097,17.9256706 3.49588258,17.9256706 Z M3.52527294,16.3812919 C2.30609943,16.3812919 1.63042196,15.7745879 1.63042196,14.5887418 L1.63042196,3.32314777 C1.63042196,2.13730171 2.30609943,1.53056941 3.52527294,1.53056941 L15.8049385,1.53056941 C17.0094018,1.53056941 17.6997594,2.13730171 17.6997594,3.32314777 L17.6997594,4.99161216 L9.16569521,4.99161216 C6.84487954,4.99161216 5.66980661,6.08093456 5.66980661,8.24579832 L5.66980661,16.3812919 L3.52527294,16.3812919 Z M9.19505549,21.4694244 C7.96123192,21.4694244 7.30023459,20.8627096 7.30023459,19.6768579 L7.30023459,8.32854096 C7.30023459,7.1426949 7.97591206,6.52218157 9.19505549,6.52218157 L21.474721,6.52218157 C22.6791843,6.52218157 23.369572,7.1426949 23.369572,8.32854096 L23.369572,19.6768579 C23.369572,20.8627096 22.6791843,21.4694244 21.474721,21.4694244 L9.19505549,21.4694244 Z" id="Shape"></path>
            </g>
        </g>
    </g>
</svg>