<?xml version="1.0" encoding="UTF-8"?>
<svg width="26px" viewBox="0 0 26 23" version="1.1" xmlns="http://www.w3.org/2000/svg" xmlns:xlink="http://www.w3.org/1999/xlink">
    <title>icon-arrow-left</title>
    <g id="Page-1" stroke="none" stroke-width="1" fill="none">
        <g id="icon-arrow-left" transform="translate(13.000000, 11.500000) scale(-1, 1) translate(-13.000000, -11.500000) " fill="#7D7D7D" fill-rule="nonzero">
            <path d="M0,11.588235 C0,11.9057342 0.125079809,12.1858614 0.375254065,12.4286587 L9.73885634,22.2333983 C9.988994,22.4761803 10.2391683,22.588235 10.5250974,22.588235 C11.1326373,22.588235 11.6151267,22.1026671 11.6151267,21.4676955 C11.6151267,21.1688651 11.5078987,20.8700729 11.3113384,20.6646438 L7.6302343,16.7800778 L3.21650315,12.5220217 L6.54020501,12.7274509 L24.9278664,12.7274509 C25.5532655,12.7274509 26,12.2418945 26,11.588235 C26,10.9159182 25.5532655,10.4490268 24.9278664,10.4490268 L6.54020501,10.4490268 L3.21650315,10.635791 L7.6302343,6.3963998 L11.3113384,2.49316894 C11.5078987,2.28773976 11.6151267,1.98894759 11.6151267,1.69011718 C11.6151267,1.0551647 11.1326373,0.588235 10.5250974,0.588235 C10.2391683,0.588235 9.97113487,0.700301187 9.68524234,0.980428406 L0.375254065,10.729154 C0.125079809,10.9719513 0,11.2707435 0,11.588235 Z" id="Path" transform="translate(13.000000, 11.588235) scale(-1, 1) translate(-13.000000, -11.588235) "></path>
        </g>
    </g>
</svg>