<?xml version="1.0" encoding="UTF-8"?>
<svg width="24px" viewBox="0 0 24 25" version="1.1" xmlns="http://www.w3.org/2000/svg" xmlns:xlink="http://www.w3.org/1999/xlink">
    <!-- Generator: Sketch 59 (86127) - https://sketch.com -->
    <title>Options Copy</title>
    <desc>Created with Sketch.</desc>
    <g id="Browser" stroke="none" stroke-width="1" fill="none">
        <g id="Browser-Screen-03" transform="translate(-330.000000, -752.000000)" fill="#7D7D7D" fill-rule="nonzero">
            <g id="Options-Copy" transform="translate(330.000000, 752.588235)">
                <path d="M11.9924272,24 C18.5640356,24 24,18.5640384 24,12.0075666 C24,5.43596158 18.5489024,0 11.9924272,0 C5.42081875,0 0,5.43596158 0,12.0075666 C0,18.5640384 5.43595198,24 11.9924272,24 Z M7.85866548,12.0075666 C7.85866548,12.8858211 7.07130298,13.6731832 6.17791478,13.6731832 C5.26939334,13.6731832 4.51229731,12.8858211 4.51229731,12.0075666 C4.51229731,11.0990456 5.2542601,10.3268168 6.17791478,10.3268168 C7.07130298,10.3268168 7.85866548,11.1142099 7.85866548,12.0075666 Z M13.6580446,12.0075666 C13.6580446,12.8858211 12.8858154,13.6731832 11.9924272,13.6731832 C11.09907,13.6731832 10.3268097,12.8858211 10.3268097,12.0075666 C10.3268097,11.0990456 11.0687725,10.3268168 11.9924272,10.3268168 C12.8858154,10.3268168 13.6580446,11.1142099 13.6580446,12.0075666 Z M19.4725571,12.0075666 C19.4725571,12.8858211 18.7003278,13.6731832 17.7918063,13.6731832 C16.9135824,13.6731832 16.1261889,12.8858211 16.1261889,12.0075666 C16.1261889,11.0990456 16.8832849,10.3268168 17.7918063,10.3268168 C18.7003278,10.3268168 19.4725571,11.1142099 19.4725571,12.0075666 Z" id="Shape"></path>
            </g>
        </g>
    </g>
</svg>